STARTFONT 2.1
COMMENT
COMMENT Converted from OpenType font "Christopher Done.ttf" by "otf2bdf 3.0".
COMMENT
FONT -FreeType-Christopher Done-Medium-R-Normal--33-240-100-100-P-171-ISO10646-1
SIZE 24 100 100
FONTBOUNDINGBOX 31 31 -2 -7
STARTPROPERTIES 19
FOUNDRY "FreeType"
FAMILY_NAME "Christopher Done"
WEIGHT_NAME "Medium"
SLANT "R"
SETWIDTH_NAME "Normal"
ADD_STYLE_NAME ""
PIXEL_SIZE 33
POINT_SIZE 240
RESOLUTION_X 100
RESOLUTION_Y 100
SPACING "P"
AVERAGE_WIDTH 171
CHARSET_REGISTRY "ISO10646"
CHARSET_ENCODING "1"
FONT_ASCENT 24
FONT_DESCENT 8
COPYRIGHT "Copyright (c) 2019 by Cundrawan (cove703). All rights reserved."
_OTF_FONTFILE "Christopher Done.ttf"
_OTF_PSNAME "ChristopherDone"
ENDPROPERTIES
CHARS 55
STARTCHAR 0000
ENCODING 0
SWIDTH 0 0
DWIDTH 0 0
BBX 0 0 0 0
BITMAP
ENDCHAR
STARTCHAR 000D
ENCODING 13
SWIDTH 300 0
DWIDTH 10 0
BBX 0 0 0 0
BITMAP
ENDCHAR
STARTCHAR 0020
ENCODING 32
SWIDTH 300 0
DWIDTH 10 0
BBX 0 0 0 0
BITMAP
ENDCHAR
STARTCHAR 0041
ENCODING 65
SWIDTH 630 0
DWIDTH 21 0
BBX 20 26 0 -2
BITMAP
007000
00FC00
01FE00
03FE00
03FE00
07FF00
07FF00
0FFF00
0F9F80
1F9F80
1F1F80
1F1F80
3F0FC0
3FFFC0
3FFFC0
7FFFC0
7FFFE0
7FFFE0
7C0FE0
7C07E0
7C07E0
FC07E0
FC07F0
FC07F0
F807F0
440000
ENDCHAR
STARTCHAR 0042
ENCODING 66
SWIDTH 600 0
DWIDTH 20 0
BBX 18 26 1 -2
BITMAP
FFF800
FFFE00
FFFF00
FFFF00
FFFF80
FC3F80
FC3F80
FC3F80
FC3F00
FC7F00
FFFE00
FFFC00
FFFE00
FFFF00
FFFF80
FEFF80
FC1FC0
FC1FC0
FC1FC0
FC3F80
FFFF80
FFFF00
FFFE00
FFFC00
FFE000
F80000
ENDCHAR
STARTCHAR 0043
ENCODING 67
SWIDTH 660 0
DWIDTH 22 0
BBX 21 25 0 -3
BITMAP
00F800
03FF00
07FF80
0FFFC0
1FFFE0
3FFFF0
3FFFF0
7F83F8
7F01E0
7E0180
FE0000
FE0000
FE0000
FE0000
FE0000
FE0180
7E01C0
7F03F0
7FFFF8
3FFFF0
3FFFF0
1FFFE0
0FFFC0
07FF80
01FE00
ENDCHAR
STARTCHAR 0044
ENCODING 68
SWIDTH 630 0
DWIDTH 21 0
BBX 20 24 0 -1
BITMAP
7FF800
FFFE00
FFFF00
FFFF80
7FFFC0
7E3FC0
7E0FE0
7E0FE0
7E07E0
7E07F0
7E07F0
7E07F0
7E03F0
7E07F0
7E07F0
7E07F0
7E07E0
7E0FE0
7E3FC0
7FFFC0
7FFF80
7FFF00
7FFE00
7FF800
ENDCHAR
STARTCHAR 0045
ENCODING 69
SWIDTH 600 0
DWIDTH 20 0
BBX 19 24 0 -1
BITMAP
0003E0
FFFFC0
7FFFC0
7FFF80
7FFF80
7F3F00
7E0000
7E0000
7E0000
7FF800
7FF800
7FF800
7FF800
7FF800
7E0000
7E0000
7E0000
7E0200
7FFF00
7FFF80
7FFFC0
7FFFC0
7FFFC0
7FFFE0
ENDCHAR
STARTCHAR 0046
ENCODING 70
SWIDTH 420 0
DWIDTH 14 0
BBX 18 27 0 -3
BITMAP
FFFFC0
FFFFC0
7FFFC0
7FFF80
7FFF80
7E0100
7E0000
7E0000
7E0000
7E0000
7FF000
7FF000
7FF000
7FF000
7FF000
7E0000
7E0000
7E0000
7E0000
7E0000
7E0000
7E0000
7E0000
7E0000
7C0000
780000
600000
ENDCHAR
STARTCHAR 0047
ENCODING 71
SWIDTH 660 0
DWIDTH 22 0
BBX 21 25 0 -1
BITMAP
00FE00
03FF80
0FFFC0
1FFFE0
1FFFF0
3FF7F0
3F81F0
7F01E0
7E0180
7E0000
7E0000
FC0100
FC0FF0
FC1FF0
FC1FF0
FE1FF0
7E01F0
7F01F0
7F03F0
7FFFF0
3FFFF0
3FFFF0
1FFFF0
07FEF0
01F878
ENDCHAR
STARTCHAR 0048
ENCODING 72
SWIDTH 660 0
DWIDTH 22 0
BBX 20 26 0 -2
BITMAP
0600F0
3E03F0
FE07F0
FE03F0
FE03F0
FE03F0
7E03F0
7E03F0
7E03F0
7E03F0
7FFFF0
7FFFF0
7FFFF0
7FFFF0
7FFFF0
7FFFF0
7E03F0
7E03F0
7E03F0
7E03F0
7E03F0
7E03F0
7E03F0
7C03F0
7C03E0
700380
ENDCHAR
STARTCHAR 0049
ENCODING 73
SWIDTH 270 0
DWIDTH 9 0
BBX 6 26 1 -2
BITMAP
3C
FC
FC
FC
FC
FC
FC
FC
FC
FC
FC
FC
FC
FC
FC
FC
FC
FC
FC
FC
FC
FC
FC
FC
F8
C0
ENDCHAR
STARTCHAR 004A
ENCODING 74
SWIDTH 450 0
DWIDTH 15 0
BBX 14 26 0 -2
BITMAP
007C
01FC
01FC
01FC
01FC
01FC
00FC
00FC
00FC
00FC
00FC
00FC
00FC
00FC
00FC
00FC
00FC
00FC
01FC
01FC
3FF8
3FF8
7FF8
7FF0
FFE0
0E00
ENDCHAR
STARTCHAR 004B
ENCODING 75
SWIDTH 600 0
DWIDTH 20 0
BBX 19 26 0 -2
BITMAP
060380
7E07C0
FE07C0
7E07C0
7E0FC0
7E0FC0
7E1F80
7E3F00
7E7F00
7EFE00
7FFC00
7FFC00
7FFC00
7FFC00
7FFE00
7FFE00
7F7F00
7E3F00
7E3F80
7E1FC0
7E1FE0
FE0FE0
FE0FC0
FE0780
F80700
E00000
ENDCHAR
STARTCHAR 004C
ENCODING 76
SWIDTH 570 0
DWIDTH 19 0
BBX 18 26 0 -2
BITMAP
070000
3E0000
FE0000
7E0000
7E0000
7E0000
7E0000
7E0000
7E0000
7E0000
7E0000
7E0000
7E0000
7E0000
7E0000
7E0000
7E0000
7E0200
7E0300
7E0780
7E3F80
7FFFC0
7FFF80
FFFF00
FFFE00
FFE000
ENDCHAR
STARTCHAR 004D
ENCODING 77
SWIDTH 780 0
DWIDTH 26 0
BBX 25 24 0 -1
BITMAP
3F80F800
3F81F800
3F81F800
3FC1FC00
7FC3FC00
7FC3FC00
7FE3FE00
7FE7FE00
7FE7FE00
7FF7FE00
7FFFFE00
FDFFBF00
FDFFBF00
FDFFBF00
FCFF3F00
FCFF3F00
FCFF3F00
FC7F3F00
FC7E3F80
FC7E3F80
FC3E3F80
FE3C3F80
FE3C3F80
7C1C3F80
ENDCHAR
STARTCHAR 004E
ENCODING 78
SWIDTH 660 0
DWIDTH 22 0
BBX 20 26 0 -2
BITMAP
0200E0
3F03E0
3F07F0
3F83F0
7F83F0
7FC3F0
7FC3F0
7FE3F0
7FE1F0
7FE1F0
7FF1F0
FFF1F0
FDF9F0
FCF9F0
FCFDF0
FC7DF0
FC7FF0
FC3FF0
FC3FF0
FC1FF0
FE1FF0
FE0FE0
FE0FE0
7E07E0
7E07E0
7803C0
ENDCHAR
STARTCHAR 004F
ENCODING 79
SWIDTH 720 0
DWIDTH 24 0
BBX 23 26 0 -2
BITMAP
007C00
03FF00
07FFC0
0FFFE0
1FFFF0
3FFFF8
3FC7F8
7F81FC
7F00FC
7E00FC
7E00FC
FE00FE
FE00FE
FE00FE
FE00FE
FE00FE
FE00FC
7E00FC
7F01FC
7F83F8
3FFFF8
1FFFF0
1FFFE0
07FFC0
03FF80
007C00
ENDCHAR
STARTCHAR 0050
ENCODING 80
SWIDTH 570 0
DWIDTH 19 0
BBX 19 26 0 -2
BITMAP
00E000
0FFE00
7FFF00
FFFF80
7FFFC0
7FFFC0
7E0FE0
7E0FE0
7E0FE0
7E0FE0
7E0FC0
7FFFC0
7FFFC0
7FFF80
7FFF00
7FFE00
7FF000
7E0000
7E0000
7E0000
7E0000
7E0000
7E0000
7F0000
7E0000
300000
ENDCHAR
STARTCHAR 0051
ENCODING 81
SWIDTH 690 0
DWIDTH 23 0
BBX 22 31 0 -7
BITMAP
00FC00
03FF80
0FFFC0
1FFFE0
1FFFF0
3FFFF0
7FFFF8
7F83F8
7F01FC
7E01FC
FE00FC
FE00FC
FE00FC
FE00FC
FE00FC
FE00FC
7E00FC
7E00FC
7F01FC
7F83F8
3FFFF8
3FFFF0
1FFFF0
0FFFC0
07FF80
01F800
01FE00
00FFE0
007FC0
003F80
000F00
ENDCHAR
STARTCHAR 0052
ENCODING 82
SWIDTH 570 0
DWIDTH 19 0
BBX 19 26 0 -2
BITMAP
1FF800
FFFE00
FFFF00
FFFF80
FFFF80
FFFFC0
FE1FC0
FE0FC0
FE0FC0
FE0FC0
FE0FC0
FE1FC0
FFFFC0
FFFF80
FFFF80
FFFF00
FFFE00
FFFF00
FC7F00
FC3F80
FE1FC0
FE1FC0
FE1FE0
FE0FC0
FC0FC0
700700
ENDCHAR
STARTCHAR 0053
ENCODING 83
SWIDTH 630 0
DWIDTH 21 0
BBX 20 25 0 -2
BITMAP
07F800
1FFE00
3FFF80
3FFFC0
7FFFC0
7FFFC0
7F0780
7F0200
7F0000
7FE000
3FFE00
3FFF80
1FFFC0
07FFE0
01FFE0
003FF0
180FF0
7C07F0
FE07F0
FFFFF0
7FFFE0
3FFFE0
3FFFC0
0FFF80
07FE00
ENDCHAR
STARTCHAR 0054
ENCODING 84
SWIDTH 540 0
DWIDTH 18 0
BBX 21 28 0 -4
BITMAP
F07FF8
FFFFF0
FFFFE0
FFFFC0
7FFFC0
3FFF00
01F000
01F000
01F000
01F000
01F000
01F000
01F000
01F000
01F000
01F000
01F000
01F000
01F000
01F800
01F800
01F800
01F800
01F800
01FC00
01F800
01E000
008000
ENDCHAR
STARTCHAR 0055
ENCODING 85
SWIDTH 630 0
DWIDTH 21 0
BBX 21 26 0 -2
BITMAP
060008
3E0078
FE03F8
FE03F8
FE01F8
FE01F8
FC01F8
FC01F8
FC01F8
FC01F0
FC01F0
FC03F0
FC03F0
FC03F0
FC03F0
FC03F0
FE03F0
7E03F0
7E07F0
7F07F0
7FFFE0
3FFFE0
1FFFC0
0FFF80
07FF00
01FC00
ENDCHAR
STARTCHAR 0056
ENCODING 86
SWIDTH 600 0
DWIDTH 20 0
BBX 23 25 0 -1
BITMAP
020060
1E00F8
FE00FE
FE00FC
7E00FC
7F00FC
7F01F8
3F01F8
3F81F8
3F83F0
1F83F0
1F83F0
1FC3E0
0FC7E0
0FC7E0
0FE7C0
07EFC0
07FFC0
07FF80
03FF80
03FF80
03FF00
01FF00
01FF00
00FE00
ENDCHAR
STARTCHAR 0057
ENCODING 87
SWIDTH 810 0
DWIDTH 27 0
BBX 29 25 0 -1
BITMAP
E0000038
F80780F8
7C0F80F8
7C0FC1F0
7E0FC1F0
7E1FC1F0
7E1FC3E0
3F1FE3E0
3F1FE3E0
3F3FE3E0
3F3FE7E0
3F3FE7C0
1F3FF7C0
1F7DF7C0
1FFDFFC0
1FFDFFC0
1FFCFF80
0FFCFF80
0FFCFF80
0FF8FF80
0FF8FF80
0FF87F80
07F87F00
07F87F00
07F07F00
ENDCHAR
STARTCHAR 0058
ENCODING 88
SWIDTH 780 0
DWIDTH 26 0
BBX 25 25 0 -1
BITMAP
04006000
1E00F000
3F01FC00
7F83FE00
3FC3FC00
1FC7F800
0FEFF000
0FFFE000
07FFE000
03FFC000
01FF8000
01FF0000
01FF0000
01FF8000
03FFC000
07FFE000
07FFE000
0FEFF000
1FC7F800
1FC3F800
3F83FC00
3F81FE00
7F00FF00
7F007F80
FE003F80
ENDCHAR
STARTCHAR 0059
ENCODING 89
SWIDTH 540 0
DWIDTH 18 0
BBX 22 26 0 -2
BITMAP
FC00FC
7E01FC
7F01F8
3F03F8
3F87F0
1FC7F0
0FCFE0
0FEFC0
07FFC0
07FF80
03FF80
01FF00
01FF00
00FE00
00FE00
00FE00
00FC00
00FC00
00FC00
00FC00
00FC00
00FC00
00FC00
00FC00
00FC00
00FC00
ENDCHAR
STARTCHAR 005A
ENCODING 90
SWIDTH 570 0
DWIDTH 19 0
BBX 18 26 0 -2
BITMAP
7FFFC0
7FFFC0
7FFFC0
3FFFC0
3FFFC0
1FFFC0
1F1FC0
001FC0
003F80
007F00
00FE00
01FC00
03FC00
07F800
0FF000
1FE000
1FC000
3F8000
3F0000
7FFE00
7FFF00
7FFF00
FFFF80
FFFF80
FFFFC0
000040
ENDCHAR
STARTCHAR 0061
ENCODING 97
SWIDTH 480 0
DWIDTH 16 0
BBX 15 18 0 -1
BITMAP
07FC
1FFC
1FFE
3FFE
7FFE
7E7C
7C7C
FC7C
FC7C
FC7C
FCFC
FFFE
7FFE
7FFE
7FFE
3F7C
1C38
0020
ENDCHAR
STARTCHAR 0062
ENCODING 98
SWIDTH 510 0
DWIDTH 17 0
BBX 16 22 0 -1
BITMAP
7800
F800
FC00
FC00
FC00
FDF8
7FFC
7FFE
7FFF
7FFF
7F7F
7E3F
7C1F
7C1F
FC1F
FE3F
FFFF
FFFF
FFFE
FFFC
FFFC
31F0
ENDCHAR
STARTCHAR 0063
ENCODING 99
SWIDTH 510 0
DWIDTH 17 0
BBX 16 18 0 -1
BITMAP
01C0
0FF8
1FFC
3FFE
7FFE
7FFE
7E1E
FC00
FC00
FC00
FC10
7C1C
7E7F
7FFE
3FFE
3FFC
1FF8
07E0
ENDCHAR
STARTCHAR 0064
ENCODING 100
SWIDTH 540 0
DWIDTH 18 0
BBX 17 23 0 -2
BITMAP
000300
000F00
003F00
001F00
001F00
001F00
0FFF00
1FFF00
3FFF00
7FFF00
7FFF00
7E3F00
7C1F00
FC1F00
FC1F00
FC1F00
7C3F00
7F7F00
7FFF00
3FFF80
3FFF80
1FFF00
078E00
ENDCHAR
STARTCHAR 0065
ENCODING 101
SWIDTH 480 0
DWIDTH 16 0
BBX 15 17 0 0
BITMAP
0FE0
1FF8
3FFC
7FFC
7FFE
7C3E
FCFE
FFFE
FFFE
FFFE
FF00
FE08
7FFC
7FFC
3FFE
1FFC
0FF0
ENDCHAR
STARTCHAR 0066
ENCODING 102
SWIDTH 360 0
DWIDTH 12 0
BBX 12 24 1 -2
BITMAP
0080
1FF0
3FE0
7FE0
7FC0
FFC0
FC00
FC00
FF80
FFC0
FF80
FF80
FF80
F800
F800
F800
F800
F800
F800
F800
F800
FC00
F000
C000
ENDCHAR
STARTCHAR 0067
ENCODING 103
SWIDTH 480 0
DWIDTH 16 0
BBX 15 25 0 -7
BITMAP
031C
1FFE
3FFE
7FFE
7FFE
7EFE
FC7E
F87E
F87E
FC7E
FFFE
7FFE
7FFE
3FFE
1FFE
007E
0C7E
3C7E
7C7C
7EFC
7FFC
3FF8
3FF0
1FE0
0780
ENDCHAR
STARTCHAR 0068
ENCODING 104
SWIDTH 510 0
DWIDTH 17 0
BBX 15 23 1 -2
BITMAP
7800
F800
FC00
FC00
FC00
FC70
FFF8
FFFC
FFFC
FFFC
FFFC
FC7E
FC7E
FC7E
FC7E
FC7E
F87E
F87E
F87E
FC7E
F87E
F078
0020
ENDCHAR
STARTCHAR 0069
ENCODING 105
SWIDTH 240 0
DWIDTH 8 0
BBX 7 22 0 -1
BITMAP
3C
7C
FC
7C
30
00
1C
7C
FE
7E
7E
7C
7C
7C
7C
7C
7C
7C
7C
7C
7E
78
ENDCHAR
STARTCHAR 006A
ENCODING 106
SWIDTH 240 0
DWIDTH 8 0
BBX 8 28 -1 -6
BITMAP
0E
3F
3F
3E
3C
00
06
3F
3F
3F
3F
3F
3F
3F
3F
3F
3F
3F
3F
3F
3F
3F
3F
3E
FE
FE
FE
FC
ENDCHAR
STARTCHAR 006B
ENCODING 107
SWIDTH 480 0
DWIDTH 16 0
BBX 16 23 0 -2
BITMAP
7C00
FC00
7C00
7C00
7C00
7C00
7C00
7C3F
7C7E
7CFE
7DFC
7FF8
7FF0
7FF0
7FF0
7FF0
7FF8
7CF8
7CFC
7C7C
7C7E
7C7E
703C
ENDCHAR
STARTCHAR 006C
ENCODING 108
SWIDTH 240 0
DWIDTH 8 0
BBX 7 23 0 -1
BITMAP
0C
7E
FE
7E
7E
7E
7E
7E
7E
7E
7E
7E
7E
7E
7E
7E
7E
7E
7E
7E
7E
7E
78
ENDCHAR
STARTCHAR 006D
ENCODING 109
SWIDTH 780 0
DWIDTH 26 0
BBX 24 18 0 -1
BITMAP
003000
0CF8FC
3DFDFE
7FFFFE
FFFFFF
7FFFFF
7F7FFF
7E3F1F
7C3E1F
7C3E1F
7C3E1F
7C3E1F
7C3E1F
7C3E1F
7C3E3F
7C3E3F
7C3C1F
30181C
ENDCHAR
STARTCHAR 006E
ENCODING 110
SWIDTH 510 0
DWIDTH 17 0
BBX 15 17 1 -1
BITMAP
0070
7BF8
FFFC
FFFC
FFFE
FE7E
FC7E
FC7E
F87E
F87E
F87E
F87E
F87E
F87E
F87E
F87E
F07C
ENDCHAR
STARTCHAR 006F
ENCODING 111
SWIDTH 510 0
DWIDTH 17 0
BBX 16 17 0 -1
BITMAP
03E0
0FF8
3FFC
3FFE
7FFE
7E3F
FC1F
FC1F
FC1F
FC1F
FC1F
FC3F
7FFE
7FFE
3FFC
1FFC
0FF0
ENDCHAR
STARTCHAR 0070
ENCODING 112
SWIDTH 510 0
DWIDTH 17 0
BBX 16 23 0 -7
BITMAP
7CFC
FFFE
FFFE
7FFF
7FFF
7F3F
7E1F
7E1F
7C1F
7C1F
7E1F
7F3F
7FFF
7FFE
7FFE
7FFC
7CF8
7C00
7C00
7C00
7E00
7E00
7C00
ENDCHAR
STARTCHAR 0071
ENCODING 113
SWIDTH 510 0
DWIDTH 17 0
BBX 16 23 0 -6
BITMAP
0F8E
3FFF
3FFE
7FFE
7FFE
FFFE
FE7E
FC7E
FC3E
FC7E
FE7E
FFFE
7FFE
7FFE
3FFE
1FFE
063E
003E
003E
003E
003E
003C
0038
ENDCHAR
STARTCHAR 0072
ENCODING 114
SWIDTH 390 0
DWIDTH 13 0
BBX 13 17 0 -2
BITMAP
3C60
FFF0
7FF0
7FF8
7FF0
7EF0
7EE0
7EC0
7E00
7E00
7E00
7E00
7E00
7E00
7E00
7E00
7C00
ENDCHAR
STARTCHAR 0073
ENCODING 115
SWIDTH 480 0
DWIDTH 16 0
BBX 15 19 0 -2
BITMAP
07E0
1FF8
3FFC
7FFC
7FF8
FC30
F800
FFF8
FFFC
7FFC
3FFE
007E
383E
7FFE
FFFE
7FFC
7FF8
1FF0
0380
ENDCHAR
STARTCHAR 0074
ENCODING 116
SWIDTH 360 0
DWIDTH 12 0
BBX 11 23 0 -1
BITMAP
0100
0300
0700
0F00
1F00
1F00
7FE0
7FE0
FFE0
FFC0
FF80
3F00
3F00
3F00
3F00
3F00
3F00
3F20
1FE0
1FE0
1FC0
0FC0
0700
ENDCHAR
STARTCHAR 0075
ENCODING 117
SWIDTH 510 0
DWIDTH 17 0
BBX 16 17 0 -1
BITMAP
1C0E
3C3F
FC3F
7C3F
7C3F
7C3F
7C3F
7C3F
7C3F
7C3F
7C7F
7FFF
7FFF
7FFF
7FBF
3F3F
1C1C
ENDCHAR
STARTCHAR 0076
ENCODING 118
SWIDTH 510 0
DWIDTH 17 0
BBX 17 17 0 -2
BITMAP
3C0F80
7C1F00
FC1F00
7E3F00
7E3E00
7E3E00
3E3E00
3E7C00
3E7C00
3F7C00
3F7C00
1FF800
1FF800
1FF800
0FF000
0FF000
07E000
ENDCHAR
STARTCHAR 0077
ENCODING 119
SWIDTH 690 0
DWIDTH 23 0
BBX 23 18 0 -1
BITMAP
78383E
F87C7C
7C7C7C
7C7C7C
7CFE7C
7CFE78
7CFEF8
3DFEF8
3DFFF8
3FFFF0
3FFFF0
3FFFF0
3FCFF0
1FCFF0
1FCFE0
1F87E0
0F07C0
000100
ENDCHAR
STARTCHAR 0078
ENCODING 120
SWIDTH 570 0
DWIDTH 19 0
BBX 18 17 0 -1
BITMAP
3C0300
7E0FC0
7F1F80
3F9F80
1FBF00
1FFE00
0FFC00
07FC00
07F800
07F800
0FFC00
1FFC00
3FFE00
3F7F00
7E3F80
FC1F80
780F80
ENDCHAR
STARTCHAR 0079
ENCODING 121
SWIDTH 480 0
DWIDTH 16 0
BBX 18 22 -2 -6
BITMAP
7C07C0
3E0F80
3F0F80
3F0F80
3F1F00
1F1F00
1F9F00
1FBF00
0FBE00
0FFE00
0FFE00
07FC00
07FC00
03FC00
03F800
01F800
01F000
1FF000
3FF000
7FE000
7FC000
FF8000
ENDCHAR
STARTCHAR 007A
ENCODING 122
SWIDTH 480 0
DWIDTH 16 0
BBX 15 18 0 -1
BITMAP
07C0
7FFC
7FFE
3FFE
3FFE
007C
01FC
03F8
07F0
1FE0
3F80
7F00
7C08
FFF8
FFFC
FFFC
7FFE
3FFE
ENDCHAR
ENDFONT
